<?xml version="1.0" standalone="no"?><!DOCTYPE svg PUBLIC "-//W3C//DTD SVG 1.1//EN" "http://www.w3.org/Graphics/SVG/1.1/DTD/svg11.dtd"><svg t="1547628958970" class="icon" style="" viewBox="0 0 1024 1024" version="1.1" xmlns="http://www.w3.org/2000/svg" p-id="1989" xmlns:xlink="http://www.w3.org/1999/xlink" width="200" height="200"><defs><style type="text/css"></style></defs><path d="M512 512m-512 0a512 512 0 1 0 1024 0 512 512 0 1 0-1024 0Z" fill="#3C9AFB" p-id="1990"></path><path d="M800.182857 644.388571a187.977143 187.977143 0 0 1-203.337143 59.977143c-39.497143-16.091429-61.44 40.96-79.725714 24.137143s0-73.142857 51.2-95.817143c87.04-27.062857 121.417143-51.931429 124.342857-103.862857S663.405714 445.44 600.502857 438.857143a161.645714 161.645714 0 0 0-115.565714 73.142857c-49.737143 46.08-73.142857 91.428571-107.52 100.205714a579.291429 579.291429 0 0 1-103.862857 8.045715H181.394286V424.96h119.954285c13.165714 0 46.811429 38.034286 84.114286 31.451429 65.828571-29.988571 62.902857-163.84 223.085714-163.84a219.428571 219.428571 0 0 1 191.634286 351.817142zM253.805714 484.937143a39.497143 39.497143 0 0 0-40.228571 39.497143 40.228571 40.228571 0 1 0 79.725714 0 39.497143 39.497143 0 0 0-39.497143-39.497143z" fill="#FFFFFF" p-id="1991"></path></svg>